<svg width="44" height="71" viewBox="0 0 44 71" fill="none" xmlns="http://www.w3.org/2000/svg">
<path opacity="0.2" fill-rule="evenodd" clip-rule="evenodd" d="M34.7355 15.9164C32.6011 14.1659 30.2552 13.944 25.6179 15.0538C21.5194 16.0343 16.9752 18.2977 13.1478 21.265C11.3925 22.6258 9.81082 23.7226 9.63268 23.7023C8.73485 23.5999 6.67389 20.8989 5.39541 18.1486C2.98741 12.9692 2.67489 8.57781 4.37387 3.79465L5.43534 0.805811L4.2296 1.3747C2.3844 2.24528 1.26507 3.97797 0.707178 6.82725C0.0796702 10.0337 0.0443098 11.3623 0.5017 14.5644C0.994229 18.0151 2.87905 22.0255 5.35774 24.8973C6.32294 26.0155 7.30432 27.3372 7.53888 27.8343C7.77344 28.3315 7.89155 30.1397 7.80145 31.8531C7.46438 38.2543 8.78348 43.8656 11.7193 48.5177C15.1846 54.0087 19.4529 57.7535 27.8768 62.6935L33.16 65.7917L32.0532 67.9043L30.9464 70.017L33.0163 69.7319C34.3821 69.5435 36.4548 68.8696 39.1117 67.7495C42.9314 66.139 43.155 66.0036 43.4769 65.1046C43.6637 64.583 43.6847 63.8779 43.5237 63.5366C43.1712 62.7895 40.0882 59.96 35.3817 56.0649C32.4975 53.6778 31.7952 53.2417 31.25 53.4989C30.2634 53.9644 30.3271 55.3726 31.4121 57.0841C31.9135 57.8744 32.7419 59.195 33.2528 60.018L34.1817 61.5149L31.9136 60.2924C27.2353 57.7709 22.6776 54.2084 19.1864 50.3444C17.0309 47.9589 13.9678 42.0399 13.3226 39.0148C12.852 36.8089 12.7626 31.9057 13.181 31.2611C13.2965 31.0832 14.4259 31.0991 15.6915 31.2967C25.8935 32.8898 36.0745 28.6676 37.1586 22.3938C37.5395 20.1883 36.4755 17.3435 34.7355 15.9164ZM32.6896 21.913C32.629 23.121 31.2416 24.3838 28.611 25.625C24.5482 27.5419 20.5764 28.0852 16.5079 27.2805L14.7123 26.9253L15.2671 26.1906C17.3913 23.3775 23.9432 19.6902 27.8462 19.1111C31.0028 18.6429 32.801 19.6831 32.6896 21.913Z" fill="#D96122"/>
</svg>
