<svg width="61" height="60" viewBox="0 0 61 60" fill="none" xmlns="http://www.w3.org/2000/svg">
<path d="M46.615 39.6032L12.2635 60L56.7446 56.9916L60.1677 12.1324L46.615 39.6032Z" fill="url(#paint0_linear_1_76)"/>
<path d="M56.8153 56.9508L52.9925 30.5652L42.5792 44.3178L56.8153 56.9508Z" fill="url(#paint1_linear_1_76)"/>
<path d="M56.8671 56.9508L28.8591 54.7525L12.4119 59.942L56.8671 56.9508Z" fill="url(#paint2_linear_1_76)"/>
<path d="M12.4505 59.9484L19.4471 37.0267L4.05066 40.3145L12.4505 59.9484Z" fill="url(#paint3_linear_1_76)"/>
<path d="M42.575 44.3973L36.1285 19.1806L17.7129 36.4466L42.575 44.3973Z" fill="url(#paint4_linear_1_76)"/>
<path d="M58.7065 19.5287L41.3009 5.30552L36.4509 20.9921L58.7065 19.5287Z" fill="url(#paint5_linear_1_76)"/>
<path d="M50.5623 0.234219L40.3187 5.89427L33.8572 0.15686L50.5623 0.234219Z" fill="url(#paint6_linear_1_76)"/>
<path d="M0 48.0073L4.29769 40.1812L0.820858 30.8595L0 48.0073Z" fill="url(#paint7_linear_1_76)"/>
<path d="M0.588745 30.5652L4.08276 40.4713L19.2579 37.0676L36.5819 20.9749L41.4726 5.43657L33.7733 0L20.6847 4.89936C16.5589 8.72645 8.55666 16.3226 8.26871 16.4623C7.98077 16.602 2.98471 26.0547 0.588745 30.563V30.5652Z" fill="white"/>
<path d="M12.8522 12.7684C21.7892 3.90875 33.307 -1.32798 37.7315 3.13946C42.156 7.60691 37.465 18.4414 28.528 27.3011C19.591 36.1607 8.21068 41.6768 3.79266 37.2158C-0.625363 32.7548 3.91514 21.6195 12.8522 12.7684Z" fill="url(#paint8_linear_1_76)"/>
<path d="M12.4504 59.9399L19.3934 36.9472L42.4483 44.3543C34.1129 52.1718 24.8407 58.7795 12.4504 59.942V59.9399Z" fill="url(#paint9_linear_1_76)"/>
<path d="M36.612 20.919L42.5299 44.3629C49.4922 37.0418 55.7432 29.1706 58.8031 19.4363L36.6099 20.9211L36.612 20.919Z" fill="url(#paint10_linear_1_76)"/>
<path d="M58.7429 19.5545C61.1066 12.4053 61.6588 2.14886 50.4892 0.247131L41.3243 5.30766L58.7429 19.5523V19.5545Z" fill="url(#paint11_linear_1_76)"/>
<path d="M0 47.9042C0.328773 59.7013 8.84034 59.8775 12.4633 59.9807L4.0828 40.4262L0 47.9042Z" fill="#9E1209"/>
<path d="M36.6442 20.9555C41.9948 24.2454 52.7798 30.8402 52.9969 30.9713C55.5126 27.4924 57.4159 23.6095 58.6247 19.49L36.6442 20.9577V20.9555Z" fill="url(#paint12_radial_1_76)"/>
<path d="M19.3846 36.9451L28.6655 54.8492C33.7206 52.0336 38.3419 48.5016 42.3859 44.3629L19.3932 36.9451H19.3846Z" fill="url(#paint13_radial_1_76)"/>
<path d="M4.05484 40.4455L2.73975 56.1041C5.22166 59.4929 8.63402 59.7873 12.214 59.523C9.62464 53.0764 4.44808 40.1834 4.04839 40.4455H4.05484Z" fill="url(#paint14_linear_1_76)"/>
<path d="M41.2706 5.34847L59.7077 7.92708C58.7235 3.75832 55.7023 1.06797 50.5515 0.225624L41.2706 5.33987V5.34847Z" fill="url(#paint15_linear_1_76)"/>
<defs>
<linearGradient id="paint0_linear_1_76" x1="52.7052" y1="65.4336" x2="40.0738" y2="42.7668" gradientUnits="userSpaceOnUse">
<stop stop-color="#FB7655"/>
<stop offset="0.41" stop-color="#E42B1E"/>
<stop offset="0.99" stop-color="#990000"/>
<stop offset="1" stop-color="#990000"/>
</linearGradient>
<linearGradient id="paint1_linear_1_76" x1="59.1686" y1="46.6142" x2="41.3547" y2="43.1054" gradientUnits="userSpaceOnUse">
<stop stop-color="#871101"/>
<stop offset="0.99" stop-color="#911209"/>
<stop offset="1" stop-color="#911209"/>
</linearGradient>
<linearGradient id="paint2_linear_1_76" x1="45.9151" y1="65.8748" x2="45.682" y2="54.5308" gradientUnits="userSpaceOnUse">
<stop stop-color="#871101"/>
<stop offset="0.99" stop-color="#911209"/>
<stop offset="1" stop-color="#911209"/>
</linearGradient>
<linearGradient id="paint3_linear_1_76" x1="11.7901" y1="38.699" x2="17.0648" y2="54.249" gradientUnits="userSpaceOnUse">
<stop stop-color="white"/>
<stop offset="0.23" stop-color="#E57252"/>
<stop offset="0.46" stop-color="#DE3B20"/>
<stop offset="0.99" stop-color="#A60003"/>
<stop offset="1" stop-color="#A60003"/>
</linearGradient>
<linearGradient id="paint4_linear_1_76" x1="29.3414" y1="23.1614" x2="30.2726" y2="39.9172" gradientUnits="userSpaceOnUse">
<stop stop-color="white"/>
<stop offset="0.23" stop-color="#E4714E"/>
<stop offset="0.56" stop-color="#BE1A0D"/>
<stop offset="0.99" stop-color="#A80D00"/>
<stop offset="1" stop-color="#A80D00"/>
</linearGradient>
<linearGradient id="paint5_linear_1_76" x1="44.8526" y1="7.47095" x2="46.1747" y2="19.6026" gradientUnits="userSpaceOnUse">
<stop stop-color="white"/>
<stop offset="0.18" stop-color="#E46342"/>
<stop offset="0.4" stop-color="#C82410"/>
<stop offset="0.99" stop-color="#A80D00"/>
<stop offset="1" stop-color="#A80D00"/>
</linearGradient>
<linearGradient id="paint6_linear_1_76" x1="35.9179" y1="3.72453" x2="37.884" y2="-4.68255" gradientUnits="userSpaceOnUse">
<stop stop-color="white"/>
<stop offset="0.54" stop-color="#C81F11"/>
<stop offset="0.99" stop-color="#BF0905"/>
<stop offset="1" stop-color="#BF0905"/>
</linearGradient>
<linearGradient id="paint7_linear_1_76" x1="1.33805" y1="34.6067" x2="6.5681" y2="37.9569" gradientUnits="userSpaceOnUse">
<stop stop-color="white"/>
<stop offset="0.31" stop-color="#DE4024"/>
<stop offset="0.99" stop-color="#BF190B"/>
<stop offset="1" stop-color="#BF190B"/>
</linearGradient>
<linearGradient id="paint8_linear_1_76" x1="-5.34182" y1="46.9732" x2="41.1511" y2="-1.2852" gradientUnits="userSpaceOnUse">
<stop stop-color="#BD0012"/>
<stop offset="0.07" stop-color="white"/>
<stop offset="0.17" stop-color="white"/>
<stop offset="0.27" stop-color="#C82F1C"/>
<stop offset="0.33" stop-color="#820C01"/>
<stop offset="0.46" stop-color="#A31601"/>
<stop offset="0.72" stop-color="#B31301"/>
<stop offset="0.99" stop-color="#E82609"/>
<stop offset="1" stop-color="#E82609"/>
</linearGradient>
<linearGradient id="paint9_linear_1_76" x1="29.9971" y1="52.2695" x2="16.699" y2="46.5981" gradientUnits="userSpaceOnUse">
<stop stop-color="#8C0C01"/>
<stop offset="0.54" stop-color="#990C00"/>
<stop offset="0.99" stop-color="#A80D0E"/>
<stop offset="1" stop-color="#A80D0E"/>
</linearGradient>
<linearGradient id="paint10_linear_1_76" x1="54.3287" y1="34.8461" x2="40.718" y2="25.27" gradientUnits="userSpaceOnUse">
<stop stop-color="#7E110B"/>
<stop offset="0.99" stop-color="#9E0C00"/>
<stop offset="1" stop-color="#9E0C00"/>
</linearGradient>
<linearGradient id="paint11_linear_1_76" x1="58.7955" y1="14.369" x2="52.2902" y2="7.85852" gradientUnits="userSpaceOnUse">
<stop stop-color="#79130D"/>
<stop offset="0.99" stop-color="#9E120B"/>
<stop offset="1" stop-color="#9E120B"/>
</linearGradient>
<radialGradient id="paint12_radial_1_76" cx="0" cy="0" r="1" gradientUnits="userSpaceOnUse" gradientTransform="translate(43.8199 23.9181) scale(15.2065 7.94595)">
<stop stop-color="#A80D00"/>
<stop offset="0.99" stop-color="#7E0E08"/>
<stop offset="1" stop-color="#7E0E08"/>
</radialGradient>
<radialGradient id="paint13_radial_1_76" cx="0" cy="0" r="1" gradientUnits="userSpaceOnUse" gradientTransform="translate(22.7575 44.1587) scale(20.3089 15.8096)">
<stop stop-color="#A30C00"/>
<stop offset="0.99" stop-color="#800E08"/>
<stop offset="1" stop-color="#800E08"/>
</radialGradient>
<linearGradient id="paint14_linear_1_76" x1="7.90338" y1="59.8586" x2="-3.44991" y2="50.3698" gradientUnits="userSpaceOnUse">
<stop stop-color="#8B2114"/>
<stop offset="0.43" stop-color="#9E100A"/>
<stop offset="0.99" stop-color="#B3100C"/>
<stop offset="1" stop-color="#B3100C"/>
</linearGradient>
<linearGradient id="paint15_linear_1_76" x1="47.1952" y1="3.04874" x2="50.4056" y2="11.1929" gradientUnits="userSpaceOnUse">
<stop stop-color="#B31000"/>
<stop offset="0.44" stop-color="#910F08"/>
<stop offset="0.99" stop-color="#791C12"/>
<stop offset="1" stop-color="#791C12"/>
</linearGradient>
</defs>
</svg>
